<?xml version="1.0" encoding="utf-8"?>
<!-- Generator: Adobe Illustrator 27.0.1, SVG Export Plug-In . SVG Version: 6.00 Build 0)  -->
<svg version="1.1" id="Layer_1" xmlns="http://www.w3.org/2000/svg" xmlns:xlink="http://www.w3.org/1999/xlink" x="0px" y="0px"
	 viewBox="0 0 39 35" style="enable-background:new 0 0 39 35;" xml:space="preserve">
<style type="text/css">
	.st0{fill:#FEFEFE;}
	.st1{fill:#D8AC44;}
	.st2{fill:#3B3B3D;}
</style>
<g id="KQNnG0_00000173160063612104266820000012445079011798343554_">
	<g>
		<path class="st0" d="M7,9.8c-0.4,0-0.9,0-1.3,0C5.2,9.7,4.9,9.9,5,10.5c0,1.7,0,3.3,0,5c0,0.6-0.2,1-0.6,1.5c-1.4,1.3-2.7,2.7-4,4
			c-0.3,0.3-0.4,0.5,0,0.8c1.2,1.2,2.4,2.4,3.6,3.6c0.3,0.4,0.6,0.4,0.9,0c1-1,2-2.1,3-3.1c2.8-2.7,5.6-5.5,8.4-8.4
			c0.5-0.5,0.7-0.4,1.1,0c1.3,1.4,2.7,2.7,4,4c0.4,0.4,0.6,0.4,1,0c1.1-1.2,2.3-2.3,3.5-3.5c0.4-0.4,0.4-0.6,0-1
			c-1.3-1.2-2.6-2.5-3.8-3.8c-1.5-1.4-2.9-3-4.4-4.4c-0.9-0.9-0.9-0.9-1.8,0c-2,2-4.1,4.1-6.1,6.1c-0.1,0.1-0.2,0.4-0.5,0.3
			c-0.1,0-0.1-0.2-0.1-0.3C9.1,10.9,9.5,10.2,9,9.9C8.6,9.5,7.9,9.8,7.3,9.8C7.2,9.8,7.1,9.8,7,9.8z M38.6,14.6
			c-0.1-0.1-0.2-0.2-0.3-0.4c-1.1-1.1-2.3-2.3-3.4-3.4c-0.4-0.5-0.7-0.4-1.1,0c-3.8,3.8-7.5,7.5-11.3,11.3c-0.4,0.4-0.7,0.5-1.1,0
			c-1.3-1.4-2.7-2.8-4.1-4.1c-0.3-0.4-0.6-0.4-0.9,0c-1.2,1.2-2.3,2.4-3.5,3.5c-0.3,0.3-0.4,0.5,0,0.9c2.9,2.9,5.9,5.8,8.8,8.7
			c0.3,0.4,0.5,0.3,0.8,0c1.3-1.4,2.7-2.7,4.1-4.1c3.9-3.9,7.9-7.9,11.8-11.8C38.4,15.1,38.6,15,38.6,14.6z"/>
		<path class="st1" d="M7,9.8c0.1,0,0.2,0,0.3,0c0.6,0,1.3-0.2,1.7,0.1c0.4,0.3,0.1,1,0.2,1.6c0,0.1,0,0.3,0.1,0.3
			c0.2,0.1,0.3-0.1,0.5-0.3c2-2,4.1-4.1,6.1-6.1c0.9-0.9,0.9-0.9,1.8,0c1.5,1.5,2.9,3,4.4,4.4c1.3,1.2,2.6,2.5,3.8,3.8
			c0.4,0.4,0.4,0.6,0,1c-1.2,1.1-2.3,2.3-3.5,3.5c-0.4,0.4-0.7,0.4-1,0c-1.3-1.4-2.7-2.7-4-4c-0.4-0.4-0.7-0.5-1.1,0
			c-2.8,2.8-5.5,5.6-8.4,8.4c-1,1-2,2.1-3,3.1c-0.4,0.4-0.6,0.4-0.9,0c-1.2-1.2-2.4-2.4-3.6-3.6C0,21.5,0,21.3,0.3,21
			c1.4-1.3,2.7-2.7,4-4C4.8,16.6,5,16.1,5,15.5c0-1.7,0-3.3,0-5c0-0.6,0.2-0.8,0.8-0.8C6.2,9.8,6.6,9.8,7,9.8z"/>
		<path class="st2" d="M38.6,14.6c0,0.3-0.3,0.5-0.4,0.6c-3.9,3.9-7.9,7.9-11.8,11.8c-1.4,1.4-2.7,2.7-4.1,4.1
			c-0.3,0.3-0.5,0.4-0.8,0c-2.9-2.9-5.8-5.8-8.8-8.7c-0.4-0.4-0.3-0.6,0-0.9c1.2-1.2,2.4-2.3,3.5-3.5c0.3-0.4,0.6-0.4,0.9,0
			c1.4,1.4,2.8,2.7,4.1,4.1c0.4,0.5,0.7,0.4,1.1,0c3.8-3.8,7.5-7.5,11.3-11.3c0.4-0.4,0.7-0.5,1.1,0c1.1,1.2,2.3,2.3,3.4,3.4
			C38.4,14.4,38.5,14.5,38.6,14.6z"/>
	</g>
</g>
</svg>
