<?xml version="1.0" encoding="utf-8"?>
<!-- Generator: Adobe Illustrator 27.0.1, SVG Export Plug-In . SVG Version: 6.00 Build 0)  -->
<svg version="1.1" id="Layer_1" xmlns="http://www.w3.org/2000/svg" xmlns:xlink="http://www.w3.org/1999/xlink" x="0px" y="0px"
	 viewBox="0 0 141 35" style="enable-background:new 0 0 141 35;" xml:space="preserve">
<style type="text/css">
	.st0{fill:#475BE8;}
	.st1{fill:#FEFEFE;}
	.st2{fill:#D8AC44;}
	.st3{fill:#3B3B3D;}
	.st4{font-family:'Bosento-Regular';}
	.st5{font-size:20px;}
	.st6{fill:#212121;}
</style>
<path class="st0" d="M-111.1,16.2c0.2,0.3,0.3,0.7,0.3,1.1c0,0.4-0.1,0.8-0.3,1.1l-4.3,7.4c-0.2,0.3-0.5,0.6-0.8,0.8
	c-0.3,0.2-0.7,0.3-1.1,0.3h-8.6c-0.4,0-0.8-0.1-1.1-0.3c-0.3-0.2-0.6-0.5-0.8-0.8l-4.3-7.4c-0.2-0.3-0.3-0.7-0.3-1.1
	c0-0.4,0.1-0.8,0.3-1.1l2.4-4.1l5.3,9.1c0.1,0.2,0.2,0.3,0.4,0.4c0.2,0.1,0.3,0.1,0.5,0.1h3.9c0.2,0,0.4,0,0.5-0.1
	c0.2-0.1,0.3-0.2,0.4-0.4l1.9-3.4c0.1-0.2,0.1-0.3,0.1-0.5s0-0.3-0.1-0.5l-8.7-15c-0.3-0.5-0.7-1-1.3-1.3c-0.5-0.3-1.1-0.5-1.7-0.5
	l-0.8,0c-0.7,0-1.4,0.2-2,0.5c-0.6,0.3-1.1,0.8-1.4,1.4l-7.7,13.3c-0.3,0.6-0.5,1.3-0.5,2c0,0.7,0.2,1.4,0.5,2l7.7,13.3
	c0.3,0.6,0.8,1.1,1.4,1.4c0.6,0.3,1.3,0.5,2,0.5h15.4c0.7,0,1.4-0.2,2-0.5c0.6-0.3,1.1-0.8,1.4-1.4l7.7-13.3c0.3-0.6,0.5-1.3,0.5-2
	s-0.2-1.4-0.5-2L-110.5,2c-0.3-0.6-0.8-1.1-1.4-1.4c-0.6-0.3-1.3-0.5-2-0.5l-6.6,0L-111.1,16.2z"/>
<g id="KQNnG0_00000173160063612104266820000012445079011798343554_">
	<g>
		<path class="st1" d="M9.1,6.6c-0.6,0-1.1,0-1.7,0c-0.8-0.1-1,0.2-1,1c0.1,2.2,0,4.3,0,6.5c0,0.8-0.3,1.4-0.8,1.9
			c-1.8,1.7-3.5,3.5-5.2,5.2c-0.4,0.4-0.5,0.7,0,1.1c1.6,1.5,3.1,3.1,4.7,4.7c0.4,0.5,0.7,0.5,1.2,0c1.3-1.3,2.6-2.7,3.9-4
			c3.7-3.6,7.3-7.2,10.9-10.9c0.6-0.6,1-0.5,1.5,0c1.7,1.8,3.5,3.5,5.2,5.2c0.5,0.5,0.8,0.5,1.4,0c1.5-1.5,3-3,4.5-4.5
			c0.5-0.5,0.5-0.8,0-1.3c-1.7-1.6-3.3-3.3-5-4.9c-1.9-1.9-3.8-3.8-5.7-5.8c-1.2-1.2-1.2-1.2-2.3,0c-2.6,2.7-5.3,5.3-7.9,7.9
			C12.5,9,12.3,9.4,12,9.2c-0.1,0-0.1-0.3-0.1-0.4c-0.1-0.7,0.3-1.6-0.2-2.1c-0.6-0.4-1.5-0.1-2.2-0.1C9.3,6.6,9.2,6.6,9.1,6.6z
			 M50.2,12.9c-0.1-0.1-0.3-0.3-0.4-0.5c-1.5-1.5-3-2.9-4.4-4.5c-0.6-0.6-0.9-0.6-1.5,0c-4.9,4.9-9.8,9.8-14.7,14.7
			c-0.6,0.6-0.9,0.6-1.5,0c-1.8-1.8-3.6-3.6-5.3-5.4c-0.4-0.5-0.7-0.5-1.2,0c-1.5,1.6-3,3.1-4.6,4.6c-0.4,0.4-0.5,0.7,0,1.1
			c3.8,3.8,7.6,7.5,11.4,11.4c0.5,0.5,0.7,0.4,1.1,0c1.7-1.8,3.5-3.5,5.3-5.3c5.1-5.1,10.2-10.2,15.3-15.3
			C49.8,13.5,50.1,13.3,50.2,12.9z"/>
		<path class="st2" d="M9.1,6.6c0.1,0,0.3,0,0.4,0c0.7,0,1.7-0.3,2.2,0.1c0.6,0.4,0.1,1.4,0.2,2.1c0,0.2,0,0.4,0.1,0.4
			c0.3,0.1,0.5-0.2,0.6-0.4c2.7-2.6,5.3-5.3,7.9-7.9c1.2-1.2,1.2-1.2,2.3,0c1.9,1.9,3.7,3.9,5.7,5.8c1.7,1.6,3.3,3.3,5,4.9
			c0.5,0.5,0.5,0.8,0,1.3c-1.5,1.5-3.1,3-4.5,4.5c-0.5,0.5-0.8,0.5-1.4,0c-1.7-1.8-3.5-3.5-5.2-5.2c-0.5-0.6-0.9-0.6-1.5,0
			c-3.6,3.7-7.2,7.3-10.9,10.9c-1.3,1.3-2.6,2.7-3.9,4c-0.5,0.5-0.7,0.5-1.2,0c-1.5-1.6-3.1-3.1-4.7-4.7c-0.5-0.4-0.4-0.7,0-1.1
			c1.8-1.7,3.5-3.5,5.2-5.2c0.6-0.5,0.8-1.1,0.8-1.9c0-2.2,0-4.3,0-6.5c0-0.8,0.3-1,1-1C7.9,6.6,8.5,6.6,9.1,6.6z"/>
		<path class="st3" d="M50.2,12.9c0,0.4-0.4,0.6-0.6,0.8C44.5,18.8,39.4,24,34.2,29.1c-1.8,1.8-3.5,3.5-5.3,5.3
			c-0.4,0.4-0.6,0.5-1.1,0c-3.8-3.8-7.6-7.6-11.4-11.4c-0.5-0.5-0.4-0.7,0-1.1c1.6-1.5,3.1-3,4.6-4.6c0.4-0.5,0.7-0.5,1.2,0
			c1.8,1.8,3.6,3.6,5.3,5.4c0.6,0.6,0.9,0.6,1.5,0c4.9-4.9,9.8-9.8,14.7-14.7c0.6-0.6,0.9-0.6,1.5,0c1.4,1.5,3,3,4.4,4.5
			C49.9,12.6,50,12.8,50.2,12.9z"/>
		<polygon class="st3" points="66,35 65.9,34.9 66,34.9 		"/>
	</g>
</g>
<text transform="matrix(1 0 0 1 60.6945 16.0954)"><tspan x="0" y="0" class="st2 st4 st5">Real</tspan><tspan x="0" y="16" class="st6 st4 st5">Estate</tspan></text>
</svg>
